<svg width="1400" height="820" viewBox="0 0 1400 820" xmlns="http://www.w3.org/2000/svg">
  <defs>
    <linearGradient id="bg3" x1="0" y1="0" x2="0" y2="1">
      <stop offset="0%" stop-color="#f8fafc"/>
      <stop offset="100%" stop-color="#e0ecff"/>
    </linearGradient>
    <linearGradient id="bar3" x1="0" y1="0" x2="1" y2="0">
      <stop offset="0%" stop-color="#1d4ed8"/>
      <stop offset="100%" stop-color="#2563eb"/>
    </linearGradient>
    <style>
      .h { font: 700 50px Arial, sans-serif; fill: #ffffff; }
      .a { font: 700 40px Arial, sans-serif; fill: #0f172a; }
      .b { font: 600 24px Arial, sans-serif; fill: #334155; }
      .c { font: 700 28px Arial, sans-serif; fill: #1e3a8a; }
      .f { font: 700 35px Arial, sans-serif; fill: #ffffff; }
    </style>
  </defs>

  <rect width="1400" height="820" fill="url(#bg3)"/>
  <rect x="38" y="38" width="1324" height="744" rx="18" fill="#ffffff" stroke="#bfdbfe" stroke-width="3"/>

  <rect x="285" y="90" width="830" height="96" rx="16" fill="url(#bar3)"/>
  <text x="700" y="152" text-anchor="middle" class="h">AI SOFTWARE ECOSYSTEM</text>

  <circle cx="700" cy="420" r="178" fill="#eff6ff" stroke="#93c5fd" stroke-width="5"/>
  <circle cx="700" cy="420" r="126" fill="#dbeafe"/>
  <circle cx="700" cy="420" r="90" fill="#ffffff"/>
  <text x="700" y="412" text-anchor="middle" class="a">CRM CORE</text>
  <text x="700" y="452" text-anchor="middle" class="b">Leads | Pipeline | Support</text>

  <line x1="700" y1="242" x2="700" y2="170" stroke="#60a5fa" stroke-width="5" stroke-dasharray="10 10"/>
  <line x1="535" y1="505" x2="430" y2="575" stroke="#60a5fa" stroke-width="5" stroke-dasharray="10 10"/>
  <line x1="865" y1="505" x2="970" y2="575" stroke="#60a5fa" stroke-width="5" stroke-dasharray="10 10"/>

  <g>
    <circle cx="700" cy="138" r="88" fill="#f8fbff" stroke="#93c5fd" stroke-width="4"/>
    <text x="700" y="132" text-anchor="middle" class="c">AI AGENT</text>
    <text x="700" y="166" text-anchor="middle" class="b">Automation</text>
  </g>

  <g>
    <circle cx="380" cy="610" r="88" fill="#f8fbff" stroke="#93c5fd" stroke-width="4"/>
    <text x="380" y="604" text-anchor="middle" class="c">RAG</text>
    <text x="380" y="638" text-anchor="middle" class="b">Retrieval</text>
  </g>

  <g>
    <circle cx="1020" cy="610" r="88" fill="#f8fbff" stroke="#93c5fd" stroke-width="4"/>
    <text x="1020" y="604" text-anchor="middle" class="c">LLM</text>
    <text x="1020" y="638" text-anchor="middle" class="b">Reasoning</text>
  </g>

  <rect x="140" y="728" width="1120" height="60" rx="30" fill="url(#bar3)"/>
  <text x="700" y="768" text-anchor="middle" class="f">AI AGENTS | RAG | LLM WORKFLOWS</text>
</svg>
