<svg width="1400" height="820" viewBox="0 0 1400 820" xmlns="http://www.w3.org/2000/svg">
  <defs>
    <linearGradient id="bg2" x1="0" y1="0" x2="0" y2="1">
      <stop offset="0%" stop-color="#f8fafc"/>
      <stop offset="100%" stop-color="#eef2ff"/>
    </linearGradient>
    <linearGradient id="bar2" x1="0" y1="0" x2="1" y2="0">
      <stop offset="0%" stop-color="#2563eb"/>
      <stop offset="100%" stop-color="#1e40af"/>
    </linearGradient>
    <style>
      .h { font: 700 50px Arial, sans-serif; fill: #fff; }
      .core { font: 700 40px Arial, sans-serif; fill: #0f172a; }
      .sub { font: 600 24px Arial, sans-serif; fill: #334155; }
      .node { font: 700 30px Arial, sans-serif; fill: #1e3a8a; }
      .flow { font: 700 36px Arial, sans-serif; fill: #fff; }
    </style>
  </defs>

  <rect width="1400" height="820" fill="url(#bg2)"/>
  <rect x="42" y="42" width="1316" height="736" rx="16" fill="#fff" stroke="#dbeafe" stroke-width="3"/>

  <rect x="300" y="88" width="800" height="94" rx="16" fill="url(#bar2)"/>
  <text x="700" y="150" text-anchor="middle" class="h">AI SOFTWARE ECOSYSTEM</text>

  <line x1="700" y1="350" x2="380" y2="280" stroke="#93c5fd" stroke-width="6" stroke-dasharray="12 12"/>
  <line x1="700" y1="350" x2="1020" y2="280" stroke="#93c5fd" stroke-width="6" stroke-dasharray="12 12"/>
  <line x1="700" y1="350" x2="700" y2="560" stroke="#93c5fd" stroke-width="6" stroke-dasharray="12 12"/>

  <circle cx="700" cy="350" r="150" fill="#f8fbff" stroke="#93c5fd" stroke-width="5"/>
  <circle cx="700" cy="350" r="102" fill="#dbeafe"/>
  <circle cx="700" cy="350" r="78" fill="#fff"/>
  <text x="700" y="340" text-anchor="middle" class="core">CRM CORE</text>
  <text x="700" y="382" text-anchor="middle" class="sub">Central Customer Engine</text>

  <rect x="230" y="200" width="300" height="140" rx="18" fill="#eff6ff" stroke="#93c5fd" stroke-width="3"/>
  <text x="380" y="275" text-anchor="middle" class="node">AI AGENT</text>
  <text x="380" y="312" text-anchor="middle" class="sub">Automated actions</text>

  <rect x="870" y="200" width="300" height="140" rx="18" fill="#eff6ff" stroke="#93c5fd" stroke-width="3"/>
  <text x="1020" y="275" text-anchor="middle" class="node">RAG</text>
  <text x="1020" y="312" text-anchor="middle" class="sub">Context retrieval</text>

  <rect x="550" y="560" width="300" height="140" rx="18" fill="#eff6ff" stroke="#93c5fd" stroke-width="3"/>
  <text x="700" y="635" text-anchor="middle" class="node">LLM</text>
  <text x="700" y="672" text-anchor="middle" class="sub">Language intelligence</text>

  <rect x="120" y="730" width="1160" height="62" rx="31" fill="url(#bar2)"/>
  <text x="700" y="772" text-anchor="middle" class="flow">AI AGENTS | RAG | LLM WORKFLOWS</text>
</svg>
